<?xml version="1.0" standalone="no"?>
<!DOCTYPE svg PUBLIC "-//W3C//DTD SVG 20010904//EN"
 "http://www.w3.org/TR/2001/REC-SVG-20010904/DTD/svg10.dtd">
<svg version="1.0" xmlns="http://www.w3.org/2000/svg"
 width="1920.000000pt" height="1920.000000pt" viewBox="0 0 1920.000000 1920.000000"
 preserveAspectRatio="xMidYMid meet">
<metadata>
Created by potrace 1.14, written by Peter Selinger 2001-2017
</metadata>
<g transform="translate(0.000000,1920.000000) scale(0.100000,-0.100000)"
fill="#000000" stroke="none">
<path d="M13448 13095 c-2 -1 -37 -5 -78 -8 -41 -3 -86 -9 -100 -12 -14 -3
-37 -7 -52 -10 -39 -7 -151 -35 -168 -42 -8 -3 -19 -5 -23 -4 -12 2 -130 -31
-192 -55 -11 -4 -22 -8 -25 -9 -19 -5 -110 -51 -132 -67 -16 -11 -37 -17 -50
-14 -42 9 -63 14 -103 25 -76 20 -110 25 -175 25 -62 0 -156 -11 -170 -19 -4
-2 -17 -6 -31 -9 -13 -2 -46 -10 -74 -16 -27 -6 -57 -13 -65 -15 -14 -3 -85
-21 -120 -30 -8 -2 -15 -4 -15 -5 0 -1 -7 -3 -16 -5 -36 -7 -188 -86 -235
-123 -16 -12 -54 -40 -84 -62 -69 -50 -78 -56 -117 -93 l-32 -30 -41 46 c-41
46 -210 177 -230 177 -5 0 -10 4 -10 9 0 15 -136 59 -240 78 -14 2 -43 9 -65
15 -72 19 -89 21 -150 22 -81 0 -160 -13 -350 -60 -11 -3 -31 -7 -45 -10 -34
-6 -117 -34 -160 -52 -19 -9 -41 -17 -49 -18 -8 -2 -17 -6 -20 -11 -3 -5 -32
-24 -63 -43 -32 -19 -58 -38 -58 -42 0 -4 -4 -8 -9 -8 -19 0 -170 -121 -219
-175 l-50 -54 -63 13 c-35 8 -97 22 -138 31 -41 10 -90 15 -110 12 -70 -12
-103 -19 -146 -31 -27 -9 -48 -10 -59 -4 -9 5 -24 11 -34 13 -42 10 -113 28
-190 47 -79 19 -142 20 -212 4 -53 -12 -80 -17 -82 -16 -2 1 -15 -3 -31 -9
-15 -6 -38 -13 -50 -15 -12 -3 -34 -8 -48 -10 -14 -3 -44 -12 -65 -19 l-39
-14 -34 46 c-69 95 -274 233 -380 256 -41 9 -57 13 -116 29 -154 40 -250 40
-410 2 -186 -44 -200 -48 -215 -53 -8 -4 -21 -7 -27 -9 -7 -1 -42 -16 -77 -33
l-64 -32 -39 36 c-21 19 -43 35 -50 35 -6 0 -13 4 -15 8 -7 17 -95 70 -123 75
-17 3 -37 8 -45 11 -8 3 -26 7 -40 10 -14 2 -56 11 -93 21 -64 16 -121 16
-187 1 -83 -19 -130 -30 -165 -39 -52 -14 -45 -12 -85 -21 -35 -8 -171 -51
-200 -63 -8 -3 -17 -7 -20 -8 -3 0 -27 -11 -54 -23 -27 -12 -52 -22 -57 -22
-5 0 -9 -5 -9 -10 0 -6 -3 -9 -7 -8 -5 1 -23 -6 -42 -16 -18 -10 -43 -15 -56
-12 -12 3 -40 8 -61 12 -21 3 -46 9 -54 14 -20 10 -80 4 -140 -14 -26 -8 -51
-12 -54 -9 -3 4 -6 1 -6 -6 0 -7 -4 -10 -8 -7 -4 3 -28 0 -53 -5 -24 -6 -51
-12 -59 -14 -35 -7 -136 -49 -151 -61 -8 -8 -19 -14 -22 -14 -4 0 -29 -16 -56
-35 l-48 -35 -19 21 c-10 12 -48 42 -84 67 -36 26 -67 49 -70 52 -41 43 -351
124 -480 124 -83 0 -151 -8 -169 -19 -5 -3 -22 -7 -38 -9 -15 -3 -38 -7 -51
-10 -12 -3 -30 -8 -40 -10 -164 -37 -278 -90 -392 -182 -8 -7 -44 -34 -79 -61
-78 -57 -181 -155 -181 -170 0 -6 -4 -13 -9 -15 -5 -1 -32 -34 -60 -73 -28
-38 -55 -76 -61 -82 -30 -36 -93 -175 -104 -229 -3 -10 -9 -39 -15 -64 -7 -25
-14 -56 -17 -70 -3 -14 -12 -52 -21 -85 -25 -92 -26 -226 -3 -315 19 -77 23
-94 38 -167 8 -39 7 -44 -16 -60 -13 -10 -36 -27 -51 -38 -14 -12 -42 -31 -61
-44 -19 -13 -57 -52 -85 -87 -27 -35 -55 -70 -61 -77 -62 -73 -142 -225 -146
-279 -2 -18 -6 -35 -9 -38 -10 -8 -61 -254 -63 -306 -2 -39 6 -97 23 -159 3
-11 5 -20 14 -60 9 -35 16 -70 23 -105 10 -50 58 -168 73 -180 4 -3 29 -36 55
-75 67 -96 117 -146 216 -218 47 -34 87 -64 90 -68 23 -30 177 -90 290 -114 8
-2 47 -11 85 -20 93 -22 103 -24 155 -35 72 -15 344 -4 400 16 8 3 26 8 40 10
22 4 58 12 85 20 6 2 21 5 35 8 39 9 68 15 92 22 13 3 34 7 47 10 13 3 32 9
43 15 10 5 18 7 18 3 0 -3 6 -2 12 4 7 6 18 11 23 12 19 5 41 13 83 32 24 11
45 18 48 15 7 -6 -14 -42 -41 -73 -12 -12 -27 -35 -35 -51 -8 -15 -23 -37 -33
-47 -9 -11 -17 -26 -17 -33 0 -7 -4 -13 -9 -13 -5 0 -11 -8 -14 -17 -11 -31
-120 -208 -138 -223 -3 -3 -39 -54 -79 -115 -40 -60 -75 -112 -79 -115 -7 -6
-24 -33 -50 -80 -16 -30 -43 -127 -65 -232 -3 -13 -7 -33 -10 -45 -2 -12 0
-39 5 -59 11 -36 15 -57 25 -103 3 -13 11 -50 18 -82 8 -32 12 -60 10 -62 -15
-15 -22 -113 -11 -157 3 -14 8 -35 11 -48 3 -13 7 -31 10 -40 3 -9 7 -28 10
-42 10 -64 29 -113 60 -159 18 -28 37 -47 41 -43 5 4 5 2 1 -5 -6 -11 53 -79
100 -113 98 -73 118 -84 174 -94 14 -2 63 -14 110 -25 101 -25 128 -26 202 -6
31 8 67 16 80 19 12 2 46 10 73 16 75 18 76 18 123 4 96 -29 183 -42 215 -33
18 5 45 12 60 14 15 3 56 12 90 21 34 8 72 17 85 20 12 2 39 14 59 25 24 14
44 18 62 14 14 -4 33 -8 41 -10 8 -2 33 -8 55 -13 22 -6 52 -13 67 -16 15 -2
32 -7 38 -11 21 -13 133 -13 178 0 26 7 92 23 147 35 55 13 105 25 110 29 6 3
15 6 20 7 6 1 15 3 20 5 6 1 17 0 25 -3 43 -16 261 -62 303 -64 26 -1 89 9
140 22 134 34 160 36 224 20 129 -33 196 -40 247 -25 17 5 60 16 96 25 36 8
72 16 80 18 8 2 29 7 45 11 17 4 35 10 40 14 20 12 42 9 145 -15 140 -33 165
-36 214 -23 43 12 65 17 106 25 14 3 43 10 65 16 22 5 42 10 45 10 3 0 12 5
20 11 8 7 29 20 46 29 30 17 32 16 65 -6 29 -20 62 -31 154 -51 11 -2 48 -11
81 -19 34 -9 72 -13 85 -11 51 10 207 48 260 64 36 11 66 14 85 9 16 -4 40
-10 54 -12 14 -3 36 -8 50 -11 14 -3 34 -8 45 -10 11 -3 31 -8 45 -11 43 -10
50 -9 225 32 11 3 33 8 49 10 16 3 39 9 51 14 15 6 56 0 121 -16 111 -27 144
-30 194 -20 89 18 239 59 278 76 l43 19 122 -30 c132 -33 214 -42 256 -29 30
10 199 49 239 56 15 3 43 13 63 23 26 14 40 16 53 9 10 -6 64 -21 120 -34 55
-14 127 -31 158 -38 60 -15 85 -14 207 10 57 11 118 28 127 35 6 5 14 6 17 3
11 -11 141 34 199 70 63 37 53 39 114 -13 14 -11 114 -42 114 -35 0 3 8 0 18
-5 18 -9 35 -13 140 -32 57 -11 75 -9 190 16 70 16 146 37 169 46 41 17 43 17
175 -15 155 -39 191 -39 343 -2 61 15 118 28 127 31 9 2 25 8 36 14 13 7 26 6
45 -4 15 -8 39 -16 54 -19 16 -3 37 -7 48 -10 163 -42 194 -47 248 -42 32 3
61 8 66 10 7 4 117 32 208 51 20 5 78 -5 138 -22 72 -21 418 50 496 101 21 14
42 26 47 26 4 0 25 15 46 34 20 19 39 34 41 33 2 -1 35 22 73 51 76 58 143
129 234 250 31 42 61 82 66 87 5 6 17 24 28 40 10 17 21 32 24 35 12 11 69
100 84 132 23 51 74 265 70 301 -1 18 -5 42 -8 55 -3 12 -8 30 -10 40 -2 9
-11 48 -20 85 -9 38 -23 78 -31 90 -18 26 -19 37 -3 74 6 15 12 30 13 33 1 3
5 14 10 25 4 11 17 43 27 70 11 28 26 64 33 80 8 17 28 68 45 115 17 47 38
103 46 124 14 36 59 208 70 266 2 14 7 31 10 39 14 39 14 85 0 132 l-16 51 63
67 c80 84 147 166 147 179 0 6 4 12 8 14 8 3 95 122 119 163 7 11 33 63 59
115 25 52 50 103 55 112 5 10 9 24 9 32 0 8 13 19 30 24 38 14 101 57 95 65
-3 4 -2 5 1 2 15 -10 151 99 146 117 -1 5 2 7 7 4 20 -13 164 186 176 242 2
10 17 75 34 145 32 132 35 190 12 266 -11 37 -1 61 25 61 8 0 14 5 14 10 0 6
5 10 11 10 11 0 82 50 87 63 2 4 8 7 14 7 13 0 98 67 116 92 7 9 18 23 25 30
22 23 143 192 159 223 34 63 47 104 82 247 51 209 64 297 49 321 -4 7 -8 18
-10 26 -1 7 -7 34 -13 60 -6 25 -13 56 -15 69 -3 12 -7 31 -10 42 -3 11 -7 28
-9 39 -4 19 -65 109 -98 145 -10 11 -18 23 -18 26 0 10 -136 109 -164 120 -14
5 -82 23 -151 39 -102 24 -132 27 -161 19 -20 -5 -44 -11 -53 -13 -14 -3 -87
-20 -133 -31 -10 -2 -27 -6 -38 -8 -11 -3 -40 -20 -66 -38 -75 -53 -81 -56
-127 -48 -23 5 -60 10 -82 13 -22 3 -60 10 -85 16 -25 5 -56 12 -70 15 -14 3
-34 7 -45 10 -211 50 -219 51 -365 50 -129 0 -188 -4 -204 -12 -5 -3 -23 -6
-41 -8 -43 -4 -349 -80 -405 -101 -25 -10 -80 -34 -123 -55 l-77 -38 -59 44
c-92 67 -236 129 -351 150 -14 2 -63 13 -110 24 -109 27 -260 47 -272 37z"/>
</g>
</svg>
